<?xml version="1.0" encoding="UTF-8"?>
<svg id="Layer_1" data-name="Layer 1" xmlns="http://www.w3.org/2000/svg" viewBox="0 0 1080 566">
  <defs>
    <style>
      .cls-1 {
        font-family: Monarcha-SemiBold, Monarcha;
        font-size: 73.69px;
        font-weight: 600;
        letter-spacing: .14em;
      }

      .cls-1, .cls-2, .cls-3 {
        fill: #fdfcfa;
      }

      .cls-3 {
        font-family: SofiaPro-Regular, 'Sofia Pro';
        font-size: 38.4px;
      }
    </style>
  </defs>
  <g>
    <text class="cls-1" transform="translate(318.37 466.48)"><tspan x="0" y="0">BEE BALM</tspan><tspan x="-13.45" y="76.02">ARKANSAS</tspan></text>
    <text class="cls-3" transform="translate(369.33 367.6) rotate(-90.04)"><tspan x="0" y="0">A</tspan></text>
    <text class="cls-3" transform="translate(369.31 337.65) rotate(-90.04)"><tspan x="0" y="0"> </tspan></text>
    <text class="cls-3" transform="translate(369.3 321.02) rotate(-90.04)"><tspan x="0" y="0">C</tspan></text>
    <text class="cls-3" transform="translate(369.28 288.02) rotate(-90.04)"><tspan x="0" y="0">O</tspan></text>
    <text class="cls-3" transform="translate(369.25 250.59) rotate(-90.04)"><tspan x="0" y="0">M</tspan></text>
    <text class="cls-3" transform="translate(368.37 208.45) rotate(-82.28)"><tspan x="0" y="0">M</tspan></text>
    <text class="cls-3" transform="translate(375.06 167.46) rotate(-69.95)"><tspan x="0" y="0">U</tspan></text>
    <text class="cls-3" transform="translate(386.47 137.76) rotate(-59.17)"><tspan x="0" y="0">N</tspan></text>
    <text class="cls-3" transform="translate(403.91 110.47) rotate(-50.93)"><tspan x="0" y="0">I</tspan></text>
    <text class="cls-3" transform="translate(414.64 97.36) rotate(-43.56)"><tspan x="0" y="0">T</tspan></text>
    <text class="cls-3" transform="translate(434.49 78.99) rotate(-34.06)"><tspan x="0" y="0">Y</tspan></text>
    <text class="cls-3" transform="translate(458.61 63.58) rotate(-26.84)"><tspan x="0" y="0"> </tspan></text>
    <text class="cls-3" transform="translate(471.62 56.33) rotate(-17.63)"><tspan x="0" y="0">W</tspan></text>
    <text class="cls-3" transform="translate(510.34 45.23) rotate(-5.9)"><tspan x="0" y="0">R</tspan></text>
    <text class="cls-3" transform="translate(540.02 43.01) rotate(1.83)"><tspan x="0" y="0">I</tspan></text>
    <text class="cls-3" transform="translate(556.96 43.61) rotate(9.21)"><tspan x="0" y="0">T</tspan></text>
    <text class="cls-3" transform="translate(583.73 48.69) rotate(16.67)"><tspan x="0" y="0">I</tspan></text>
    <text class="cls-3" transform="translate(599.92 53.4) rotate(24.98)"><tspan x="0" y="0">N</tspan></text>
    <text class="cls-3" transform="translate(628.86 67.37) rotate(36.2)"><tspan x="0" y="0">G</tspan></text>
    <text class="cls-3" transform="translate(656.39 88.95) rotate(44.66)"><tspan x="0" y="0"> </tspan></text>
    <text class="cls-3" transform="translate(667.65 100.09) rotate(51.92)"><tspan x="0" y="0">E</tspan></text>
    <text class="cls-3" transform="translate(684.29 122.01) rotate(61.42)"><tspan x="0" y="0">X</tspan></text>
    <text class="cls-3" transform="translate(697.8 147.84) rotate(71.27)"><tspan x="0" y="0">P</tspan></text>
    <text class="cls-3" transform="translate(706.66 175.74) rotate(80.85)"><tspan x="0" y="0">E</tspan></text>
    <text class="cls-3" transform="translate(710.35 203.1) rotate(89.18)"><tspan x="0" y="0">R</tspan></text>
    <text class="cls-3" transform="translate(710.53 233.64) rotate(89.95)"><tspan x="0" y="0">I</tspan></text>
    <text class="cls-3" transform="translate(710.55 251.4) rotate(89.95)"><tspan x="0" y="0">E</tspan></text>
    <text class="cls-3" transform="translate(710.57 279.94) rotate(89.95)"><tspan x="0" y="0">N</tspan></text>
    <text class="cls-3" transform="translate(710.6 313.25) rotate(89.95)"><tspan x="0" y="0">C</tspan></text>
    <text class="cls-3" transform="translate(710.62 346.65) rotate(89.95)"><tspan x="0" y="0">E</tspan></text>
  </g>
  <g>
    <g>
      <path class="cls-2" d="m546.54,363.35c1.09.44,2.27-.63,2.64-2.38,6.22-29.46,3.29-67.09-.99-96.59-3.65-25.16-8.28-44.37-9.07-47.58.02-.01.03-.03.05-.04-4.28-18.96-7.06-39.12-5.88-57.19.12-1.8-.72-3.3-1.86-3.34-1.14-.03-2.17,1.4-2.28,3.21-1.25,19.15,1.6,40.12,5.98,59.71,0,0,0,0,0,0,0,.03,0,.05,0,.08.03.13.58,2.33,1.42,6.13,4.6,20.65,18.22,88.85,8.68,134.03-.37,1.75.22,3.53,1.3,3.97Zm-11.29-146.8c-.02.05-.05.09-.06.14.01-.05.04-.09.06-.14Z"/>
      <path class="cls-2" d="m553.05,321.54c0,13.7-.99,27.3-3.56,39.49-.25,1.17-.85,2.1-1.61,2.51-.48.26-.98.29-1.46.1h0c-1.24-.51-1.89-2.41-1.49-4.33,9.55-45.22-4.23-113.91-8.68-133.89-.31-1.39-.58-2.57-.8-3.53v.13l-.54-2.39c-.02-.1-.04-.19-.06-.27-.02-.08-.03-.12-.03-.15-5.08-22.72-7.09-42.83-5.98-59.8.13-2,1.28-3.54,2.61-3.51.48.02.93.24,1.29.64.62.69.95,1.83.87,3.03-1.05,16,.93,35.21,5.87,57.1l.04.2-.04.03c.99,4.02,5.46,22.79,9.03,47.41,2.38,16.37,4.55,36.89,4.55,57.21Zm-6.39,41.52c.3.12.61.09.92-.07.6-.32,1.08-1.1,1.29-2.08,3.52-16.66,6.2-46.92-1-96.48-3.63-25.03-8.19-44-9.06-47.55l-.05-.22.05-.03c-4.92-21.87-6.88-41.07-5.84-57.07.06-1.02-.21-2.01-.71-2.56-.17-.19-.46-.42-.84-.44-.96-.03-1.85,1.3-1.96,2.91-1.07,16.27.76,35.49,5.43,57.14l.05-.12.62.17v.02s-.05.1-.05.1l-.62-.16c.17.81.35,1.62.54,2.44l.02.13c.24.99.73,3.04,1.42,6.12,4.46,20.01,18.26,88.82,8.68,134.16-.33,1.58.18,3.23,1.11,3.61Z"/>
    </g>
    <g>
      <path class="cls-2" d="m499.07,225.56c-.74.87-.19,2.49,1.22,3.62,14.16,11.29,27.2,26.91,38.34,42.84.02,0,.04,0,.06,0,1.01,1.51,4.81,7.12,10.69,15.09-.95-2.74-.88-5.37-.13-7.71-.93-1.3-1.77-2.48-2.5-3.51-2.24-3.19-3.5-5.07-3.58-5.18-.02-.02-.04-.04-.05-.06,0,0,0,0,0,0-11.54-16.43-25.13-32.65-40.14-44.61-1.42-1.13-3.17-1.34-3.91-.47Z"/>
      <path class="cls-2" d="m550.37,288.98l-1.24-1.68c-5.86-7.96-9.64-13.53-10.58-14.93h-.06s-.11-.16-.11-.16c-12.87-18.39-25.75-32.78-38.28-42.77-.95-.76-1.57-1.76-1.66-2.68-.06-.54.08-1.03.39-1.39h0c.87-1.02,2.78-.83,4.35.43,13.11,10.45,26.43,25.2,39.62,43.85v-.05l.64.95c.27.39,1.5,2.21,3.58,5.16.72,1.03,1.56,2.21,2.49,3.51l.09.13-.05.15c-.78,2.46-.74,4.99.13,7.51l.68,1.98Zm-2.01-5.96c0-1.2.18-2.39.54-3.57-.9-1.25-1.7-2.38-2.41-3.38-1.7-2.41-2.83-4.07-3.31-4.79l-.38-.53c-13.32-18.96-26.79-33.91-40.02-44.46-1.26-1-2.85-1.24-3.47-.51-.25.29-.27.65-.24.92.07.74.62,1.6,1.42,2.25,12.54,10,25.42,24.37,38.28,42.73h.02s.17.18.17.18c.67,1,4.12,6.13,9.66,13.69-.17-.84-.26-1.67-.26-2.5Z"/>
    </g>
    <g>
      <path class="cls-2" d="m541.26,269.04s-.1-.03-.14-.05c.05.02.1.03.14.05Z"/>
      <path class="cls-2" d="m541.4,268.76l-.28.57-.15-.05.27-.58c.07.02.11.03.16.06Z"/>
    </g>
    <g>
      <path class="cls-2" d="m511.49,139.77h-.03s.1.12.1.12c.09.11.18.22.28.32l17.69,20.26c.6.69,1.64.76,2.33.16l20.3-17.73c.07-.06.14-.12.21-.19l.18-.16h-.05c.68-.71,1.17-1.62,1.24-2.68.16-2.37-1.63-4.42-4-4.58-.82-.06-1.57.19-2.25.55-.65-2.39-2.72-4.22-5.33-4.4-1.16-.08-2.25.19-3.21.7-1.12-2.27-3.36-3.92-6.07-4.1-2.7-.18-5.13,1.14-6.55,3.22-.87-.62-1.9-1.03-3.04-1.1-2.62-.18-4.94,1.38-5.89,3.68-.64-.47-1.36-.83-2.21-.89-2.37-.16-4.42,1.63-4.58,4-.07,1.06.29,2.02.87,2.81Z"/>
      <path class="cls-2" d="m552.02,133.36c.68-2.51,2.26-7.58,4.73-11.06,3.39-4.77,5.86-5.83,7.19-4.71,1.32,1.11,1,3.98-2.39,8.75-2.47,3.47-6.59,6.41-8.65,7.76-.53.34-1.05-.09-.87-.73Z"/>
      <path class="cls-2" d="m555.01,111.42c1.51.8,1.7,3.66-.78,9.05-1.81,3.92-5.34,7.67-7.13,9.43-.46.45-1.05.13-.99-.53.22-2.59.86-7.88,2.67-11.8,2.49-5.39,4.73-6.95,6.24-6.15Z"/>
      <path class="cls-2" d="m560.16,115c-.14.57-.67.94-1.24.91-.07,0-.14-.01-.21-.03-.64-.16-1.03-.81-.88-1.45.04-.16.97-3.62,4.33-4.32.3-.66.98-1.11,1.76-1.06,1,.07,1.75.93,1.68,1.93-.07,1-.93,1.75-1.93,1.68-.3-.02-.57-.13-.81-.28-2.06.27-2.68,2.48-2.71,2.61Z"/>
      <path class="cls-2" d="m554.49,105.91c-.3.04-.58-.02-.84-.12-1.99.66-2.17,2.98-2.17,3.08-.04.66-.6,1.16-1.26,1.13h-.02c-.65-.05-1.15-.6-1.12-1.26,0-.16.27-3.73,3.44-5.05.17-.71.76-1.27,1.53-1.37.99-.12,1.9.58,2.02,1.58.12.99-.58,1.9-1.58,2.02Z"/>
      <path class="cls-2" d="m544.14,100.44c-.28.1-.57.1-.85.05-1.81,1.04-1.53,3.33-1.51,3.45.1.65-.35,1.26-1.01,1.36-.09.01-.18.02-.26.01-.55-.04-1.02-.45-1.1-1.01-.02-.16-.49-3.72,2.36-5.64.03-.73.49-1.4,1.22-1.65.95-.32,1.97.19,2.29,1.14s-.19,1.97-1.14,2.29Z"/>
      <path class="cls-2" d="m539.18,125.69c.06.66.69.85,1.07.32,1.47-2.08,4.33-6.46,5.46-10.66,1.55-5.77.88-8.53-.75-9.01-1.62-.48-3.57,1.5-5.13,7.27-1.13,4.2-.88,9.5-.66,12.08Z"/>
      <path class="cls-2" d="m513.14,130.73c-.33-2.57-1.22-7.82-3.2-11.59-2.72-5.19-5.02-6.57-6.49-5.64-1.46.93-1.53,3.8,1.19,8.99,1.98,3.77,5.67,7.24,7.53,8.85.48.41,1.05.05.96-.61Z"/>
      <path class="cls-2" d="m513.13,108.59c-1.6.59-2.18,3.4-.44,9.07,1.27,4.13,4.26,8.32,5.8,10.3.39.51,1.02.27,1.05-.39.13-2.6.21-7.92-1.06-12.05-1.74-5.67-3.75-7.52-5.35-6.93Z"/>
      <path class="cls-2" d="m507.55,111.44c.06.59.54,1.03,1.11,1.06.07,0,.14,0,.21,0,.66-.07,1.13-.66,1.06-1.32-.02-.16-.47-3.72-3.71-4.86-.21-.7-.83-1.23-1.6-1.28-1-.07-1.86.69-1.93,1.68s.69,1.86,1.68,1.93c.3.02.58-.05.84-.17,2,.55,2.32,2.82,2.34,2.95Z"/>
      <path class="cls-2" d="m514.39,103.2c.29.08.58.06.85,0,1.88.92,1.75,3.24,1.74,3.34-.05.66.44,1.23,1.09,1.29h.02c.65.05,1.22-.44,1.27-1.09.01-.16.24-3.74-2.73-5.47-.08-.73-.58-1.36-1.33-1.56-.97-.25-1.96.32-2.21,1.29-.25.97.32,1.96,1.29,2.21Z"/>
      <path class="cls-2" d="m525.38,99.17c.27.13.55.17.83.17,1.65,1.28,1.07,3.51,1.03,3.62-.18.63.18,1.29.81,1.48.09.02.17.04.26.05.55.04,1.07-.31,1.23-.86.04-.16.98-3.62-1.58-5.91.07-.73-.3-1.45-.99-1.79-.9-.44-1.98-.08-2.43.82s-.08,1.98.82,2.42Z"/>
      <path class="cls-2" d="m527.87,112.8c-.76-5.93-2.43-8.15-4.1-7.89-1.67.26-2.71,2.9-1.95,8.82.55,4.31,2.8,9.04,3.98,11.3.3.58.96.48,1.1-.17.57-2.52,1.53-7.75.98-12.06Z"/>
      <path class="cls-2" d="m530.95,111.3c-.39,4.33.76,9.51,1.42,12.01.17.64.83.72,1.11.13,1.1-2.3,3.16-7.11,3.56-11.44.54-5.95-.6-8.55-2.28-8.75-1.68-.2-3.26,2.09-3.81,8.04Z"/>
    </g>
    <g>
      <path class="cls-2" d="m495.97,201.7c-2.14-1.03-4.71-.12-5.74,2.02-.37.77-.41,1.58-.31,2.36-2.47-.3-4.97.94-6.11,3.31-.49,1.03-.65,2.13-.54,3.19-2.52.21-4.86,1.68-6.03,4.12-1.17,2.45-.85,5.21.58,7.3-.91.58-1.69,1.4-2.19,2.45-1.13,2.36-.56,5.07,1.2,6.81-.65.42-1.22.94-1.58,1.69-1.03,2.14-.12,4.71,2.02,5.74.95.46,1.98.48,2.93.23l-.02.05.23-.08c.09-.03.18-.06.27-.09l25.43-8.94c.86-.3,1.31-1.25,1.01-2.11l-8.92-25.37c-.04-.14-.09-.27-.14-.4l-.05-.15-.02.03c-.4-.9-1.06-1.69-2.02-2.14Z"/>
      <path class="cls-2" d="m472.46,235.97c-2.51-.64-7.71-1.77-11.95-1.33-5.83.6-7.96,2.23-7.64,3.93.32,1.7,2.97,2.83,8.79,2.23,4.24-.44,8.83-2.58,11.01-3.71.56-.29.43-.96-.21-1.12Z"/>
      <path class="cls-2" d="m451.89,227.77c-.04,1.7,2.35,3.29,8.26,3.77,4.3.35,9.31-.87,11.72-1.57.62-.18.63-.85.03-1.12-2.36-1.09-7.28-3.13-11.59-3.48-5.91-.49-8.38.7-8.42,2.4Z"/>
      <path class="cls-2" d="m452.47,234.01c.57.16,1.15-.12,1.4-.64.03-.06.06-.13.07-.2.18-.64-.19-1.3-.83-1.48-.16-.04-3.63-.94-5.89,1.65-.73-.06-1.45.31-1.78,1.01-.43.9-.05,1.98.85,2.42.9.43,1.98.05,2.42-.85.13-.27.17-.56.16-.84,1.25-1.66,3.48-1.11,3.61-1.08Z"/>
      <path class="cls-2" d="m447.35,224.6c.18-.24.27-.51.31-.79,1.55-1.4,3.66-.42,3.75-.38.59.29,1.3.05,1.6-.54v-.02c.29-.59.05-1.3-.54-1.59-.14-.07-3.38-1.61-6.09.51-.7-.2-1.48.03-1.94.66-.59.8-.43,1.94.38,2.53.8.59,1.94.43,2.53-.38Z"/>
      <path class="cls-2" d="m447.68,212.9c.22-.2.36-.45.46-.71,1.8-1.06,3.65.31,3.75.38.52.4,1.27.31,1.68-.21.05-.07.1-.15.14-.22.24-.49.11-1.11-.34-1.46-.13-.1-2.99-2.25-6.07-.73-.65-.33-1.46-.26-2.03.25-.74.67-.81,1.81-.14,2.56s1.81.8,2.56.14Z"/>
      <path class="cls-2" d="m461.26,215.64c-5.79-1.49-8.47-.77-8.85.88-.38,1.65,1.69,3.6,7.47,5.09,4.21,1.08,9.43.75,11.97.49.65-.07.8-.71.25-1.09-2.13-1.46-6.63-4.29-10.84-5.38Z"/>
      <path class="cls-2" d="m489.31,200.83c-2.08-1.56-6.2-4.91-8.52-8.49-3.17-4.92-3.24-7.6-1.72-8.42,1.53-.82,4.07.54,7.24,5.46,2.31,3.58,3.51,8.5,4,10.91.12.62-.47.94-1.01.54Z"/>
      <path class="cls-2" d="m470.04,189.93c1.3-1.1,4.03-.23,8.11,4.08,2.97,3.14,5.15,7.81,6.11,10.12.25.59-.26,1.02-.86.73-2.32-1.16-7-3.72-9.97-6.86-4.08-4.31-4.7-6.97-3.4-8.07Z"/>
      <path class="cls-2" d="m475.27,186.47c.48.34.63.98.38,1.49-.03.06-.06.12-.11.18-.38.54-1.13.66-1.67.28-.13-.1-3-2.24-2.4-5.63-.5-.53-.66-1.33-.33-2.02.43-.9,1.51-1.28,2.42-.85.9.43,1.28,1.51.85,2.42-.13.27-.33.48-.56.65-.51,2.01,1.31,3.41,1.42,3.49Z"/>
      <path class="cls-2" d="m464.73,188.37c-.08.29-.23.53-.42.74-.12,2.09,1.96,3.12,2.05,3.16.6.28.86.99.58,1.59v.02c-.29.59-.99.84-1.59.57-.15-.07-3.37-1.63-3.42-5.07-.59-.42-.9-1.18-.7-1.92.25-.97,1.24-1.54,2.21-1.29.97.25,1.54,1.24,1.29,2.21Z"/>
      <path class="cls-2" d="m455.81,195.95c-.02.3-.12.57-.27.81.3,2.06,2.53,2.66,2.65,2.68.64.15,1.04.8.89,1.44-.02.09-.05.17-.09.25-.24.49-.79.78-1.35.65-.16-.04-3.63-.93-4.37-4.28-.67-.3-1.12-.97-1.08-1.74.06-1,.91-1.76,1.91-1.71s1.76.91,1.71,1.91Z"/>
      <path class="cls-2" d="m477.43,209.92c.63.19,1.04-.33.69-.88-1.38-2.14-4.39-6.42-7.87-9.02-4.78-3.58-7.59-3.97-8.64-2.65-1.05,1.33.07,3.87,4.85,7.46,3.48,2.61,8.5,4.34,10.98,5.09Z"/>
      <path class="cls-2" d="m454.75,206.12c-.66,1.56,1.04,3.83,6.49,6.29,3.96,1.79,9.17,2.36,11.7,2.54.65.05.91-.57.43-1.03-1.85-1.81-5.79-5.36-9.76-7.15-5.45-2.46-8.21-2.2-8.87-.64Z"/>
    </g>
    <g>
      <path class="cls-2" d="m586.68,276.25c.89.71.68,2.4-.48,3.79-11.66,13.86-21.36,31.75-29.14,49.56-.02,0-.04,0-.06,0-.69,1.68-3.32,7.92-7.5,16.9.39-2.88-.19-5.44-1.39-7.59.66-1.45,1.24-2.78,1.75-3.93,1.57-3.57,2.43-5.66,2.49-5.79.01-.02.03-.05.04-.07,0,0,0,0,0,0,8.07-18.38,18.2-36.96,30.55-51.65,1.17-1.39,2.84-1.94,3.74-1.23Z"/>
      <path class="cls-2" d="m549.18,346.46c.36-2.65-.1-5.14-1.35-7.39l-.08-.14.06-.14c.66-1.45,1.25-2.78,1.75-3.93,1.45-3.3,2.3-5.33,2.49-5.76l.44-1.06v.05c9.26-20.89,19.41-37.98,30.2-50.8,1.29-1.54,3.13-2.1,4.18-1.28h0c.38.3.61.75.66,1.29.09.92-.32,2.03-1.1,2.96-10.31,12.27-20.1,28.91-29.09,49.48l-.07.19h-.07c-.65,1.57-3.25,7.77-7.43,16.73l-.88,1.89.28-2.07Zm.75-1.66c3.93-8.5,6.31-14.21,6.77-15.32l.13-.21h.02c8.99-20.53,18.78-37.16,29.1-49.44.66-.79,1.03-1.74.95-2.48-.03-.26-.12-.62-.42-.85-.75-.59-2.27-.05-3.3,1.19-10.89,12.95-21.14,30.27-30.46,51.48l-.26.6c-.33.8-1.12,2.65-2.3,5.35-.49,1.12-1.06,2.39-1.69,3.79.59,1.08,1,2.22,1.23,3.4.16.82.24,1.65.24,2.5Z"/>
    </g>
    <g>
      <path class="cls-2" d="m567.51,267.75l-.03-.02.02.15c.01.14.03.28.06.42l3.83,26.62c.13.9.97,1.53,1.87,1.4l26.68-3.84c.1-.01.19-.02.28-.04l.24-.03-.04-.04c.96-.22,1.86-.71,2.49-1.56,1.42-1.9,1.03-4.59-.87-6.02-.66-.49-1.42-.69-2.18-.76.76-2.36,0-5.03-2.08-6.59-.93-.7-2-1.06-3.08-1.15.3-2.52-.69-5.11-2.86-6.74-2.17-1.62-4.93-1.84-7.25-.86-.39-.99-1.04-1.9-1.95-2.58-2.1-1.57-4.9-1.53-6.95-.11-.28-.74-.69-1.44-1.37-1.95-1.9-1.42-4.59-1.03-6.02.87-.63.85-.86,1.85-.8,2.83Z"/>
      <path class="cls-2" d="m605.01,284.41c1.93-1.74,6.02-5.14,9.98-6.71,5.44-2.16,8.09-1.7,8.59-.05.51,1.66-1.32,3.88-6.76,6.04-3.96,1.57-9.02,1.8-11.48,1.81-.63,0-.83-.65-.33-1.09Z"/>
      <path class="cls-2" d="m619.45,267.62c.83,1.49-.56,4-5.58,7.17-3.65,2.3-8.66,3.53-11.11,4.03-.63.13-.95-.46-.55-.98,1.59-2.06,5.01-6.14,8.66-8.45,5.02-3.17,7.75-3.26,8.58-1.77Z"/>
      <path class="cls-2" d="m621.82,273.42c-.43.4-1.08.43-1.53.08-.05-.04-.11-.09-.16-.14-.45-.48-.43-1.24.05-1.69.12-.11,2.78-2.51,5.98-1.27.62-.39,1.43-.39,2.05.07.8.6.96,1.73.36,2.53-.6.8-1.73.96-2.53.36-.24-.18-.4-.42-.53-.67-1.87-.89-3.6.63-3.7.72Z"/>
      <path class="cls-2" d="m622,262.71c-.27-.13-.47-.33-.64-.56-2.03-.52-3.44,1.32-3.5,1.4-.39.53-1.13.65-1.67.26h-.02c-.52-.4-.64-1.14-.25-1.67.09-.13,2.26-2.99,5.64-2.37.53-.5,1.33-.66,2.02-.32.9.44,1.27,1.52.84,2.42-.44.9-1.52,1.27-2.42.84Z"/>
      <path class="cls-2" d="m616.3,252.49c-.29-.07-.53-.23-.74-.42-2.08-.11-3.1,1.97-3.15,2.08-.27.6-.98.86-1.58.59-.08-.04-.16-.08-.23-.13-.44-.33-.61-.93-.37-1.45.07-.15,1.61-3.38,5.05-3.45.42-.6,1.17-.91,1.92-.72.97.25,1.55,1.23,1.3,2.2s-1.23,1.55-2.2,1.3Z"/>
      <path class="cls-2" d="m598.4,270.99c-.31.58.12,1.09.73.85,2.36-.94,7.15-3.07,10.38-5.97,4.44-4,5.37-6.68,4.27-7.97-1.1-1.28-3.81-.69-8.25,3.31-3.23,2.91-5.9,7.5-7.12,9.78Z"/>
      <path class="cls-2" d="m573.81,261.06c1.12-2.34,3.23-7.22,3.62-11.47.54-5.83-.65-8.24-2.38-8.26-1.73-.02-3.35,2.36-3.89,8.19-.39,4.24.82,9.16,1.5,11.52.18.6.85.61,1.14.01Z"/>
      <path class="cls-2" d="m585.84,242.47c-1.66-.37-3.68,1.67-5.3,7.37-1.18,4.15-.95,9.3-.73,11.8.05.64.71.79,1.1.25,1.52-2.11,4.48-6.54,5.66-10.69,1.62-5.71.94-8.35-.72-8.73Z"/>
      <path class="cls-2" d="m579.61,241.83c-.26.53-.1,1.15.35,1.5.05.04.11.08.18.11.59.3,1.31.06,1.61-.53.07-.15,1.62-3.38-.47-6.1.2-.7-.02-1.48-.64-1.95-.8-.6-1.93-.44-2.53.36s-.44,1.93.36,2.53c.24.18.51.27.79.32,1.38,1.55.42,3.63.36,3.75Z"/>
      <path class="cls-2" d="m589.83,238.64c.2.22.45.36.72.46,1.07,1.8-.3,3.67-.36,3.75-.4.52-.3,1.27.22,1.67h.02c.52.4,1.26.3,1.67-.21.1-.13,2.23-3.01.69-6.08.33-.65.25-1.46-.27-2.03-.67-.74-1.82-.79-2.56-.12-.74.67-.79,1.82-.12,2.56Z"/>
      <path class="cls-2" d="m601.24,241.23c.15.26.37.45.61.59.69,1.97-1.01,3.52-1.1,3.6-.5.43-.55,1.19-.12,1.68.06.07.12.13.19.18.44.33,1.06.32,1.5-.05.12-.11,2.79-2.5,1.89-5.82.45-.57.54-1.38.15-2.04-.51-.86-1.62-1.14-2.48-.63-.86.51-1.14,1.62-.63,2.48Z"/>
      <path class="cls-2" d="m595.92,254.02c2.58-5.39,2.39-8.16.85-8.85-1.54-.69-3.85.96-6.44,6.34-1.88,3.92-2.57,9.11-2.81,11.64-.06.65.54.92,1.02.46,1.85-1.81,5.5-5.67,7.38-9.59Z"/>
      <path class="cls-2" d="m599.32,254.43c-2.69,3.42-4.53,8.4-5.34,10.86-.21.63.3,1.05.86.71,2.17-1.33,6.52-4.24,9.2-7.66,3.69-4.7,4.15-7.5,2.84-8.58-1.3-1.08-3.88-.02-7.57,4.68Z"/>
    </g>
    <path class="cls-2" d="m555.81,188.69c.94,6.84,2.33,20.92-.12,31.99-3.37,15.22-8.32,20.36-12.72,19-4.4-1.36-6.58-8.7-3.22-23.92,2.45-11.07,9.5-22.55,13.16-27.97.94-1.39,2.66-.86,2.9.89Z"/>
    <path class="cls-2" d="m513.83,269.36c4.88.2,14.86.98,22.26,4.06,10.18,4.24,13.14,8.32,11.65,11.22-1.49,2.9-6.88,3.5-17.05-.73-7.41-3.08-14.52-9.42-17.84-12.64-.85-.82-.27-1.96.98-1.91Z"/>
  </g>
</svg>